<svg viewBox="0 0 308 308" fill="none" stroke="currentColor" xmlns="http://www.w3.org/2000/svg">
<path d="M-113.011 407.48C-144.252 369.795 -162.012 325.184 -168.147 274.374C-174.363 223.644 -169.035 166.713 -137.794 146.582C-106.553 126.451 -49.4784 143.12 1.21819 149.481C51.9148 155.843 96.234 151.897 124.892 172.028C153.55 192.159 166.547 236.367 169.696 283.715C172.844 331.063 166.144 381.551 137.486 419.237C108.827 457.002 58.2115 481.884 10.5825 478.985C-37.1272 476.006 -81.85 445.165 -113.011 407.48Z" stroke-opacity="0.8" stroke-width="4"/>
<path d="M-134.977 426.498C-172.275 381.581 -193.479 328.409 -200.803 267.847C-208.224 207.381 -201.864 139.524 -164.565 115.53C-127.267 91.535 -59.1273 111.402 1.39831 118.985C61.9239 126.567 114.836 121.864 149.05 145.859C183.264 169.853 198.781 222.545 202.54 278.98C206.299 335.415 198.299 395.594 164.085 440.511C129.871 485.525 69.4414 515.182 12.5782 511.727C-44.3814 508.176 -97.775 471.416 -134.977 426.498Z" stroke-opacity="0.6" stroke-width="4"/>
<path d="M-154.824 443.323C-197.542 391.934 -221.826 331.102 -230.215 261.815C-238.714 192.637 -231.429 115.005 -188.711 87.5537C-145.993 60.1023 -67.9533 82.8321 1.36659 91.5067C70.6865 100.181 131.286 94.8009 170.472 122.252C209.657 149.704 227.429 209.987 231.734 274.552C236.039 339.118 226.877 407.966 187.691 459.355C148.506 510.854 79.2962 544.783 14.1709 540.83C-51.0649 536.768 -112.216 494.712 -154.824 443.323Z" stroke-opacity="0.4" stroke-width="4"/>
<path d="M-179.969 465.632C-229.701 405.869 -257.971 335.123 -267.738 254.545C-277.633 174.094 -269.151 83.8104 -219.42 51.8855C-169.689 19.9606 -78.8364 46.3945 1.8644 56.4827C82.5652 66.571 153.114 60.3137 198.733 92.2387C244.352 124.164 265.041 194.271 270.053 269.358C275.065 344.445 264.399 424.513 218.78 484.276C173.161 544.168 92.5885 583.627 16.7709 579.03C-59.1752 574.305 -130.367 525.396 -179.969 465.632Z" stroke-opacity="0.2" stroke-width="4"/>
<path d="M-202.898 485.733C-258.995 418.349 -290.884 338.582 -301.9 247.728C-313.062 157.019 -303.495 55.2225 -247.398 19.2266C-191.302 -16.7692 -88.8213 13.0354 2.20836 24.4101C93.238 35.7848 172.816 28.7296 224.274 64.7255C275.732 100.721 299.069 179.768 304.722 264.431C310.376 349.093 298.345 439.37 246.887 506.755C195.429 574.283 104.544 618.774 19.0227 613.59C-66.6437 608.263 -146.947 553.117 -202.898 485.733Z" stroke-opacity="0.1" stroke-width="4"/>
</svg>
