<svg viewBox="0 0 308 308" fill="none" stroke="currentColor" xmlns="http://www.w3.org/2000/svg">
<path d="M407.48 113.011C369.795 144.252 325.184 162.012 274.374 168.147C223.644 174.363 166.713 169.035 146.582 137.794C126.451 106.553 143.12 49.4785 149.481 -1.21818C155.843 -51.9148 151.897 -96.234 172.028 -124.892C192.159 -153.55 236.367 -166.547 283.715 -169.696C331.063 -172.844 381.551 -166.144 419.236 -137.486C457.002 -108.827 481.884 -58.2115 478.985 -10.5825C476.006 37.1272 445.165 81.85 407.48 113.011Z" stroke-opacity="0.8" stroke-width="4"/>
<path d="M426.499 134.977C381.581 172.275 328.409 193.479 267.847 200.803C207.381 208.224 139.524 201.864 115.53 164.565C91.5351 127.267 111.403 59.1273 118.985 -1.39829C126.567 -61.9239 121.864 -114.836 145.859 -149.05C169.853 -183.264 222.545 -198.781 278.98 -202.54C335.415 -206.299 395.594 -198.299 440.511 -164.085C485.525 -129.871 515.182 -69.4414 511.727 -12.5782C508.176 44.3814 471.416 97.775 426.499 134.977Z" stroke-opacity="0.6" stroke-width="4"/>
<path d="M443.323 154.824C391.934 197.542 331.102 221.826 261.815 230.215C192.637 238.714 115.005 231.429 87.5537 188.711C60.1023 145.993 82.8321 67.9533 91.5067 -1.36657C100.181 -70.6864 94.8009 -131.286 122.252 -170.472C149.704 -209.657 209.987 -227.429 274.552 -231.734C339.118 -236.039 407.966 -226.877 459.355 -187.691C510.854 -148.506 544.783 -79.2962 540.831 -14.1709C536.768 51.0649 494.712 112.216 443.323 154.824Z" stroke-opacity="0.4" stroke-width="4"/>
<path d="M465.632 179.969C405.869 229.7 335.123 257.971 254.545 267.738C174.094 277.633 83.8105 269.151 51.8856 219.42C19.9607 169.689 46.3945 78.8363 56.4828 -1.86444C66.571 -82.5652 60.3138 -153.114 92.2387 -198.733C124.164 -244.352 194.271 -265.041 269.358 -270.053C344.445 -275.065 424.513 -264.399 484.276 -218.78C544.168 -173.161 583.627 -92.5885 579.03 -16.7709C574.305 59.1752 525.396 130.367 465.632 179.969Z" stroke-opacity="0.2" stroke-width="4"/>
<path d="M485.733 202.898C418.349 258.995 338.582 290.884 247.728 301.9C157.019 313.062 55.2225 303.495 19.2267 247.398C-16.7692 191.302 13.0354 88.8213 24.4101 -2.20833C35.7848 -93.238 28.7296 -172.816 64.7255 -224.274C100.721 -275.732 179.768 -299.069 264.431 -304.722C349.093 -310.376 439.37 -298.345 506.755 -246.887C574.283 -195.429 618.774 -104.544 613.59 -19.0227C608.263 66.6437 553.117 146.947 485.733 202.898Z" stroke-opacity="0.1" stroke-width="4"/>
</svg>
