<svg width="53" height="36" viewBox="0 0 53 36" fill="none" xmlns="http://www.w3.org/2000/svg">
<path d="M10.0631 0.740854C10.2359 0.914903 10.4087 1.16556 10.4095 1.41771C10.4102 1.85358 9.90421 2.4449 8.96873 3.41631C5.06793 7.2149 3.10577 11.8666 3.119 17.4771C3.13371 23.6842 5.19737 28.6691 9.20848 32.5324C10.052 33.2948 10.3984 33.8943 10.3999 34.4075C10.3999 34.659 10.2285 34.9208 10.0565 35.1729C9.89465 35.3477 9.54973 35.5233 9.30115 35.5233C8.37302 35.5255 7.07422 34.4157 5.37829 32.2565C2.07614 28.1633 0.583192 23.6433 0.499352 17.4831C0.42213 11.3199 2.33281 7.14052 6.07255 2.82573C7.41841 1.28383 8.5407 0.482755 9.3063 0.481267C9.55488 0.480523 9.81375 0.566804 10.0631 0.740854Z" fill="black"/>
<path d="M30.5518 18.5876C29.0861 18.209 35.1005 11.0224 24.4108 2.41809C24.4108 2.41809 25.8133 6.92478 18.7413 16.9817C11.6656 27.035 21.8875 33.024 21.8875 33.024C21.8875 33.024 17.0902 30.4386 22.6671 21.2333C23.6651 19.5635 24.9713 18.0513 26.5929 14.6477C26.5929 14.6477 28.0285 16.6969 27.2791 21.1396C26.1583 27.8531 32.1396 25.9319 32.2323 26.0256C34.3217 28.5136 30.5018 32.8864 30.2694 33.024C30.0377 33.1579 41.1782 26.2465 33.2634 15.8452C32.7214 16.3934 32.0168 18.9669 30.5518 18.5876Z" fill="black"/>
<path d="M42.3072 0.736337C42.1343 0.910387 41.9615 1.16105 41.9608 1.4132C41.96 1.84906 42.466 2.44039 43.4015 3.41179C47.3023 7.20964 49.2645 11.8621 49.2512 17.4726C49.2365 23.6796 47.1729 28.6646 43.1617 32.5279C42.3182 33.2903 41.9718 33.8898 41.9703 34.403C41.9703 34.6544 42.1417 34.9163 42.3138 35.1684C42.4756 35.3432 42.8205 35.518 43.0691 35.5187C43.9972 35.521 45.296 34.4112 46.9919 32.252C50.2941 28.1588 51.787 23.6387 51.8709 17.4786C51.9481 11.3154 50.0374 7.13601 46.2977 2.82121C44.9518 1.27931 43.8295 0.478238 43.0639 0.47675C42.8153 0.476007 42.5565 0.562288 42.3072 0.736337Z" fill="black"/>
</svg>
